<?xml version="1.0" standalone="no"?>
<!DOCTYPE svg PUBLIC "-//W3C//DTD SVG 20010904//EN"
 "http://www.w3.org/TR/2001/REC-SVG-20010904/DTD/svg10.dtd">
<svg version="1.0" xmlns="http://www.w3.org/2000/svg"
 width="662.000000pt" height="336.000000pt" viewBox="0 0 662.000000 336.000000"
 preserveAspectRatio="xMidYMid meet">

<g transform="translate(0.000000,336.000000) scale(0.100000,-0.100000)"
fill="#000000" stroke="none">
<path d="M1707 3069 c3 -11 25 -31 49 -45 24 -14 44 -31 44 -37 0 -7 16 -23
35 -37 19 -14 35 -29 35 -34 0 -4 14 -24 30 -43 17 -18 30 -40 30 -48 0 -8 6
-15 13 -15 7 0 23 -20 35 -45 12 -25 26 -45 32 -45 5 0 10 -9 10 -19 0 -11 7
-26 15 -34 7 -8 17 -27 21 -42 4 -14 13 -29 20 -32 7 -2 20 -38 30 -79 9 -41
22 -77 29 -82 11 -6 23 -50 45 -177 12 -69 12 -367 0 -440 -24 -143 -35 -196
-42 -190 -7 7 -17 -26 -39 -127 -7 -33 -18 -58 -24 -58 -7 0 -16 -16 -19 -35
-4 -19 -11 -35 -16 -35 -6 0 -10 -6 -10 -12 1 -23 -75 -158 -87 -158 -7 0 -13
-6 -13 -14 0 -7 -9 -25 -20 -39 -11 -14 -20 -31 -20 -37 0 -7 -11 -21 -25 -32
-14 -11 -25 -25 -25 -33 0 -7 -11 -22 -24 -32 -14 -10 -26 -25 -28 -33 -2 -8
-20 -27 -40 -42 -21 -16 -38 -35 -38 -43 0 -8 -6 -15 -13 -15 -13 0 -47 -35
-47 -49 0 -4 -11 -13 -24 -19 -14 -6 -35 -25 -47 -41 -13 -17 -28 -31 -33 -31
-6 0 -27 -15 -46 -33 -20 -17 -53 -41 -73 -52 -20 -11 -37 -23 -37 -27 0 -4
-34 -24 -75 -44 -41 -20 -75 -39 -75 -43 0 -3 -15 -12 -32 -20 -94 -40 -118
-52 -118 -61 0 -6 -5 -10 -11 -10 -27 0 -159 -46 -159 -55 0 -6 -53 -21 -117
-34 -65 -13 -123 -29 -129 -36 -13 -17 -200 -35 -356 -35 -70 0 -108 -4 -108
-11 0 -29 731 14 755 45 6 7 24 16 40 19 110 22 190 46 187 56 -1 6 9 11 22
11 14 0 27 4 30 8 3 5 31 14 63 22 33 7 68 22 80 35 12 12 40 27 61 33 21 7
49 20 61 31 12 10 48 32 81 47 33 16 60 34 60 41 0 6 10 15 23 19 31 10 66 37
67 52 0 6 6 12 13 12 8 0 22 9 32 20 10 11 21 20 25 20 8 0 90 77 90 85 0 9
36 41 53 48 9 3 17 12 17 20 0 7 12 24 26 38 14 13 34 38 45 56 12 18 27 33
35 33 8 0 14 7 14 15 0 17 35 86 48 94 12 8 62 107 62 122 0 7 7 17 16 23 8 6
19 27 24 46 10 42 33 103 41 110 11 10 38 116 45 175 4 33 11 63 17 66 17 11
29 189 23 335 -5 139 -11 178 -26 169 -4 -2 -10 28 -14 68 -5 63 -31 163 -46
177 -10 10 -29 56 -41 99 -7 23 -18 45 -25 48 -7 3 -18 21 -25 41 -7 20 -18
43 -26 50 -7 7 -13 20 -13 28 0 8 -6 14 -14 14 -7 0 -20 14 -27 32 -7 18 -44
62 -81 99 -37 36 -68 71 -68 76 0 6 -10 14 -22 17 -13 3 -43 24 -67 46 -25 22
-53 40 -63 40 -10 0 -18 4 -18 9 0 5 -13 14 -30 20 -16 5 -30 14 -30 19 0 6
-6 12 -14 15 -10 4 -12 0 -9 -14z"/>
<path d="M2183 3070 c2 -8 12 -20 23 -25 46 -26 85 -53 85 -61 0 -14 41 -54
56 -54 7 0 13 -6 13 -14 0 -8 14 -28 30 -46 17 -18 30 -35 30 -40 0 -4 9 -17
20 -30 11 -13 20 -29 20 -37 0 -7 7 -13 15 -13 8 0 19 -17 27 -41 6 -23 20
-46 30 -53 10 -6 18 -15 18 -21 1 -5 9 -28 20 -50 11 -22 19 -46 20 -54 0 -8
7 -19 15 -25 9 -7 23 -53 34 -115 10 -57 24 -107 31 -111 15 -9 16 -370 0
-380 -8 -5 -50 -239 -50 -276 0 -3 -4 -3 -10 1 -5 3 -17 -20 -26 -52 -9 -32
-20 -62 -25 -68 -5 -5 -9 -17 -9 -26 0 -9 -7 -19 -14 -22 -8 -3 -18 -22 -22
-42 -3 -19 -10 -38 -15 -41 -5 -3 -9 -10 -9 -15 0 -17 53 30 83 73 15 23 27
37 27 32 1 -16 39 60 40 78 0 10 8 25 18 35 21 20 58 117 68 178 4 22 11 43
17 46 18 12 28 93 33 274 4 118 2 206 -6 255 -6 41 -11 83 -11 93 0 10 -6 20
-14 23 -7 3 -16 22 -20 42 -9 49 -45 132 -68 157 -10 11 -20 31 -24 45 -7 32
-23 51 -34 44 -5 -3 -9 0 -9 6 0 17 -44 80 -56 80 -6 0 -16 11 -22 24 -6 14
-23 32 -37 42 -14 9 -25 22 -25 29 0 7 -13 18 -29 23 -16 6 -37 22 -46 36 -10
14 -23 26 -30 26 -7 0 -36 11 -63 25 -28 14 -56 25 -62 25 -7 0 -19 8 -27 18
-11 13 -13 13 -10 2z"/>
<path d="M4360 3064 c0 -8 5 -12 10 -9 6 3 10 10 10 16 0 5 -4 9 -10 9 -5 0
-10 -7 -10 -16z"/>
<path d="M4820 3067 c0 -7 -29 -26 -65 -42 -36 -16 -65 -33 -65 -38 0 -12 -26
-37 -39 -37 -5 0 -18 -11 -29 -25 -11 -14 -23 -25 -26 -25 -10 0 -56 -51 -56
-61 0 -5 -5 -9 -11 -9 -12 0 -48 -40 -49 -53 0 -5 -13 -20 -30 -34 -16 -13
-30 -31 -30 -39 0 -8 -11 -24 -25 -36 -14 -12 -25 -28 -25 -35 0 -12 -38 -94
-80 -174 -5 -9 -12 -34 -16 -55 -4 -22 -13 -43 -20 -49 -8 -5 -22 -57 -31
-115 -35 -205 -14 -690 31 -725 8 -6 17 -29 21 -53 4 -23 10 -44 15 -47 4 -3
11 -21 15 -41 3 -20 15 -46 26 -57 10 -11 19 -29 19 -40 0 -19 36 -92 55 -113
6 -6 19 -29 30 -52 11 -23 25 -42 31 -42 7 0 19 -18 28 -40 9 -22 23 -40 31
-40 8 0 15 -6 15 -13 0 -8 9 -22 20 -32 11 -10 20 -26 20 -37 0 -10 5 -18 11
-18 6 0 36 -25 67 -55 31 -30 60 -55 64 -55 4 0 8 -5 8 -11 0 -13 41 -48 56
-49 7 0 19 -11 28 -25 9 -14 22 -25 29 -25 7 0 26 -13 43 -28 16 -16 55 -41
87 -57 33 -16 61 -34 64 -42 3 -7 13 -13 22 -13 9 0 25 -7 35 -15 11 -8 27
-15 35 -15 9 0 29 -11 45 -25 16 -13 45 -28 65 -31 45 -9 100 -31 117 -49 8
-7 33 -16 56 -20 65 -10 162 -37 169 -48 6 -8 69 -18 305 -46 117 -14 468 -15
459 -1 -3 6 -52 10 -111 10 -148 0 -346 19 -359 35 -11 13 -22 16 -150 42 -44
8 -84 20 -90 27 -11 13 -83 41 -132 51 -19 4 -33 13 -33 21 0 8 -7 14 -15 14
-8 0 -23 4 -33 10 -9 5 -34 17 -54 26 -21 9 -38 20 -38 25 0 5 -9 9 -20 9 -11
0 -20 4 -20 9 0 5 -13 12 -30 16 -16 4 -30 10 -30 15 0 5 -13 11 -30 15 -16 4
-30 11 -30 16 0 5 -19 21 -42 35 -24 15 -47 33 -51 40 -4 8 -14 14 -21 14 -7
0 -21 9 -31 20 -10 11 -24 20 -32 20 -7 0 -13 7 -13 15 0 8 -4 15 -9 15 -11 0
-171 161 -171 172 0 4 -7 8 -15 8 -8 0 -15 6 -15 14 0 7 -10 24 -23 37 -31 33
-77 96 -77 106 0 4 -9 14 -20 20 -10 7 -24 30 -30 52 -6 25 -17 41 -30 44 -12
3 -20 14 -20 27 0 12 -7 28 -15 36 -8 9 -15 24 -15 35 0 10 -6 19 -13 19 -13
0 -47 99 -47 135 0 8 -6 15 -13 15 -13 0 -27 42 -49 145 -6 28 -14 59 -18 70
-45 120 -51 382 -14 598 3 20 10 37 14 37 4 0 11 21 15 48 4 26 10 52 15 57 4
6 10 27 14 48 4 20 13 37 20 37 7 0 19 24 26 56 8 31 22 64 31 73 10 9 22 27
28 41 15 34 34 64 47 72 6 4 19 25 29 48 10 22 23 40 30 40 6 0 20 15 30 34
10 19 29 39 42 45 13 6 28 22 33 36 5 14 16 25 24 25 8 0 19 6 23 14 4 7 18
18 31 25 27 15 29 31 2 31 -11 0 -20 -6 -20 -13z"/>
<path d="M4264 3022 c-28 -15 -61 -37 -75 -50 -13 -13 -38 -29 -55 -37 -20 -8
-34 -23 -38 -39 -3 -14 -11 -26 -17 -26 -17 0 -105 -96 -119 -130 -7 -16 -16
-30 -20 -30 -11 0 -45 -60 -54 -93 -3 -15 -10 -27 -15 -27 -9 0 -20 -31 -57
-160 -9 -30 -21 -65 -26 -76 -17 -37 -15 -426 2 -449 5 -5 10 -23 13 -40 19
-109 54 -225 68 -225 5 0 9 -6 9 -12 0 -20 43 -118 52 -118 4 0 19 -23 33 -50
14 -28 30 -48 35 -45 6 3 10 1 10 -6 0 -14 41 -53 64 -62 14 -6 15 -3 6 14 -6
11 -15 17 -21 14 -5 -4 -9 0 -9 7 0 7 -9 30 -20 51 -11 20 -20 44 -20 52 0 9
-6 18 -14 21 -8 3 -20 29 -26 57 -26 117 -34 146 -39 141 -6 -6 -22 74 -42
211 -24 163 7 501 47 527 7 5 19 42 29 83 9 41 20 75 25 75 5 0 21 27 37 60
15 33 33 60 38 60 6 0 17 17 24 37 13 34 25 50 91 121 14 15 30 36 35 47 6 11
20 24 33 30 12 5 25 18 28 28 3 10 21 25 40 34 19 9 34 20 34 25 0 15 -34 7
-86 -20z"/>
<path d="M3685 2995 c-10 -27 -22 -52 -25 -55 -4 -3 -10 -16 -13 -30 -3 -14
-12 -43 -21 -65 -17 -45 -21 -122 -7 -157 10 -26 41 -45 84 -52 58 -10 111 31
122 92 7 45 -8 114 -30 136 -8 8 -15 21 -15 28 0 7 -9 30 -20 51 -11 20 -20
44 -20 52 0 8 -6 15 -14 15 -8 0 -16 8 -18 18 -2 10 -11 -2 -23 -33z"/>
<path d="M2832 3010 c-6 -11 -12 -24 -12 -30 0 -6 -8 -20 -18 -31 -11 -11 -25
-44 -32 -74 -8 -33 -19 -55 -27 -55 -9 0 -13 -16 -13 -54 0 -47 4 -59 32 -90
29 -33 37 -36 82 -36 39 1 57 6 79 25 25 22 27 30 27 95 0 40 -4 70 -10 70 -5
0 -10 9 -10 19 0 11 -4 22 -8 25 -5 3 -15 31 -22 63 -7 32 -22 66 -31 76 -22
21 -22 21 -37 -3z"/>
<path d="M3198 1929 c-9 -12 -24 -55 -33 -96 -10 -42 -23 -77 -31 -80 -17 -6
-21 -153 -3 -153 6 0 18 -9 28 -21 12 -16 29 -21 66 -21 44 -1 52 2 77 33 22
26 28 43 28 81 0 27 -4 56 -9 66 -5 9 -17 38 -26 65 -9 26 -21 47 -26 47 -4 0
-15 21 -22 47 -16 54 -26 61 -49 32z"/>
<path d="M2960 1370 l0 -240 125 0 125 0 0 35 0 34 -82 3 -83 3 -3 203 -2 202
-40 0 -40 0 0 -240z"/>
<path d="M3360 1584 c-6 -14 -10 -33 -10 -43 0 -9 -4 -21 -8 -26 -11 -12 -39
-105 -48 -158 -3 -20 -12 -41 -18 -45 -7 -4 -18 -34 -25 -67 -7 -33 -17 -70
-23 -82 -14 -28 -10 -32 29 -37 40 -5 48 1 66 54 l15 45 83 3 c85 3 99 -2 99
-41 0 -10 17 -33 37 -52 34 -31 38 -32 60 -18 23 15 31 47 14 57 -5 3 -12 26
-16 51 -3 26 -12 48 -20 51 -8 3 -20 43 -31 101 -9 53 -22 97 -29 100 -7 2
-16 21 -20 41 -3 20 -12 49 -18 65 -11 25 -16 27 -70 27 -53 0 -58 -2 -67 -26z
m86 -141 c9 -32 21 -62 25 -68 4 -5 9 -21 11 -35 3 -24 1 -25 -61 -28 -58 -3
-63 -1 -56 15 4 10 12 38 18 63 6 25 17 49 24 53 7 4 13 19 13 32 0 38 7 30
26 -32z"/>
<path d="M2083 884 c-37 -8 -104 -80 -114 -122 -12 -53 -11 -215 2 -267 7 -27
20 -50 35 -59 13 -9 32 -26 43 -37 17 -19 31 -22 92 -21 69 0 73 1 100 34 32
36 40 88 14 88 -8 0 -25 -5 -38 -12 -70 -36 -77 -36 -108 -3 -13 13 -29 25
-35 25 -11 0 -20 31 -29 104 -7 49 10 127 29 138 9 5 16 14 16 20 0 29 73 51
96 28 5 -5 25 -11 44 -12 29 -3 35 1 38 18 2 12 -7 34 -20 49 -20 22 -33 27
-83 30 -33 2 -70 1 -82 -1z"/>
<path d="M2454 880 c-14 -5 -24 -21 -29 -47 -4 -21 -10 -42 -14 -48 -11 -16
-29 -75 -41 -140 -6 -33 -17 -64 -24 -70 -10 -8 -46 -155 -46 -187 0 -5 16 -8
35 -8 25 0 37 5 41 18 3 9 10 26 14 37 5 11 10 29 12 40 3 18 12 20 90 23 l86
3 7 -40 c3 -22 13 -42 21 -45 8 -3 14 -12 14 -21 0 -11 11 -15 40 -15 24 0 40
5 40 12 0 35 -26 128 -35 128 -7 0 -19 43 -29 100 -10 55 -23 103 -29 107 -7
5 -20 39 -30 77 -9 39 -18 71 -20 72 -9 8 -86 11 -103 4z m60 -183 c4 -27 14
-51 22 -54 8 -3 14 -18 14 -34 0 -29 0 -29 -60 -29 -54 0 -75 10 -51 24 5 3
12 31 16 61 4 38 11 55 21 55 9 0 14 10 14 28 1 40 16 8 24 -51z"/>
<path d="M2820 883 c-29 -6 -60 -35 -60 -58 0 -8 -7 -15 -15 -15 -12 0 -15
-13 -15 -55 0 -40 4 -57 15 -61 8 -4 15 -12 15 -20 0 -8 9 -19 20 -26 11 -7
20 -18 20 -25 0 -7 7 -13 15 -13 8 0 32 -9 54 -21 55 -28 63 -73 22 -121 -18
-21 -66 -24 -78 -5 -10 15 -49 37 -67 37 -7 0 -16 -9 -19 -21 -8 -28 9 -69 28
-69 8 0 15 -7 15 -15 0 -11 12 -16 43 -17 82 -3 111 3 137 29 14 14 35 32 48
40 19 13 22 24 22 84 0 55 -3 69 -15 69 -8 0 -15 6 -15 13 0 17 -39 53 -67 61
-11 4 -24 13 -27 21 -3 8 -14 15 -24 15 -27 0 -48 51 -32 79 8 16 20 21 55 21
24 0 47 -4 50 -10 3 -5 15 -10 26 -10 14 0 19 7 19 28 0 48 -19 63 -85 67 -33
2 -71 1 -85 -2z"/>
<path d="M3205 883 c-11 -3 -32 -14 -47 -25 -16 -11 -28 -16 -28 -12 0 27 -42
-80 -47 -118 -3 -27 -9 -48 -13 -48 -14 0 -17 -84 -5 -110 7 -14 19 -47 27
-75 10 -37 21 -53 41 -63 15 -7 32 -22 37 -33 9 -16 22 -19 88 -19 74 0 79 1
105 31 28 32 33 54 18 78 -8 12 -14 12 -43 1 -18 -7 -41 -20 -51 -29 -17 -14
-20 -14 -32 2 -6 9 -16 17 -21 17 -5 0 -21 11 -35 24 -31 29 -44 99 -33 183 5
43 13 60 41 88 39 39 62 43 116 20 52 -21 57 -19 57 23 0 27 -6 41 -22 51 -23
14 -120 23 -153 14z"/>
<path d="M3578 884 c-11 -3 -20 -20 -24 -42 -3 -20 -12 -41 -18 -47 -7 -5 -17
-30 -23 -55 -7 -25 -17 -67 -24 -95 -7 -27 -16 -52 -19 -55 -11 -9 -41 -124
-43 -165 -2 -38 -1 -40 30 -43 37 -4 49 12 59 77 l7 41 87 0 88 0 6 -45 c9
-57 27 -75 77 -75 37 0 39 2 39 29 0 17 -4 33 -10 36 -5 3 -10 19 -10 36 0 16
-4 29 -9 29 -5 0 -12 20 -15 45 -4 24 -11 47 -16 50 -5 3 -12 30 -15 60 -5 33
-12 55 -20 55 -7 0 -17 28 -25 69 -7 38 -16 74 -19 80 -8 12 -78 22 -103 15z
m71 -219 c5 -22 13 -50 16 -62 7 -22 5 -23 -49 -23 -64 0 -62 -3 -44 95 8 40
18 65 25 65 7 0 13 10 13 23 1 24 21 -28 39 -98z"/>
<path d="M4418 878 c-18 -6 -28 -17 -28 -29 0 -11 -4 -27 -10 -37 -8 -15 -33
-113 -47 -184 -3 -16 -9 -28 -13 -28 -5 0 -11 -19 -15 -42 -4 -24 -11 -47 -15
-53 -5 -5 -11 -36 -15 -67 l-7 -58 40 0 41 0 6 48 c4 26 8 53 10 60 6 17 174
17 179 0 3 -7 10 -34 17 -60 l13 -48 48 0 c44 0 48 2 48 25 0 13 -6 28 -13 32
-8 4 -22 51 -32 103 -9 52 -23 100 -30 105 -7 6 -16 29 -20 53 -4 23 -10 44
-15 47 -4 3 -11 26 -15 51 -11 77 -59 108 -127 82z m73 -195 c5 -32 12 -68 14
-80 5 -22 2 -23 -49 -23 -30 0 -58 5 -61 10 -3 6 -2 10 3 10 5 0 12 19 16 43
9 53 28 110 41 119 14 10 24 -12 36 -79z"/>
<path d="M3882 633 l3 -248 105 0 c79 0 104 3 102 13 -1 6 7 12 18 12 33 0 86
41 102 79 39 92 29 278 -17 316 -14 12 -25 26 -25 33 0 7 -14 15 -30 19 -17 3
-33 10 -36 14 -3 5 -54 9 -115 9 l-109 0 2 -247z m180 166 c27 -7 40 -17 44
-34 3 -14 12 -25 19 -25 34 0 31 -174 -3 -208 -11 -11 -24 -27 -28 -35 -8 -13
-65 -22 -121 -18 -10 1 -13 40 -13 159 0 87 3 162 7 165 9 10 53 8 95 -4z"/>
</g>
</svg>
